<!DOCTYPE svg PUBLIC "-//W3C//DTD SVG 20010904//EN" "http://www.w3.org/TR/2001/REC-SVG-20010904/DTD/svg10.dtd">
<svg version="1.0" xmlns="http://www.w3.org/2000/svg" width="35px" height="34px" viewBox="0 0 350 340" preserveAspectRatio="xMidYMid meet">
<g id="layer101" fill="#f1fbff" stroke="none">
 <path d="M256 291 c-46 -46 -49 -48 -81 -38 -103 31 -199 -65 -165 -167 18 -57 61 -86 127 -86 50 0 58 3 90 35 35 35 35 36 30 103 l-4 67 50 52 c33 34 48 57 44 67 -11 28 -42 17 -91 -33z m-87 -96 c31 -16 41 -33 41 -71 0 -34 -42 -74 -78 -74 -29 0 -68 32 -73 60 -6 30 12 70 39 84 34 19 37 19 71 1z"/>
 </g>

</svg>