<!DOCTYPE svg PUBLIC "-//W3C//DTD SVG 20010904//EN" "http://www.w3.org/TR/2001/REC-SVG-20010904/DTD/svg10.dtd">
<svg version="1.0" xmlns="http://www.w3.org/2000/svg" width="30px" height="34px" viewBox="0 0 300 340" preserveAspectRatio="xMidYMid meet">
<g id="layer101" fill="#ffffff" stroke="none">
 <path d="M6 308 c9 -36 9 -64 -1 -148 -5 -45 -3 -61 14 -88 30 -47 77 -72 136 -72 91 0 145 57 145 152 0 52 -3 62 -36 98 -25 27 -47 41 -72 46 -21 3 -67 14 -103 25 -90 26 -92 25 -83 -13z m129 -55 c55 -9 86 -26 100 -54 29 -55 12 -110 -42 -138 -35 -18 -69 -13 -101 14 -39 33 -48 74 -27 119 10 21 14 44 10 57 -6 19 -4 21 11 15 11 -4 33 -10 49 -13z"/>
 </g>

</svg>